<svg xmlns="http://www.w3.org/2000/svg" width="914" height="775" viewBox="0 0 914 775" font-family="Helvetica Neue, Helvetica, Arial, sans-serif" fill="#111111">
<rect x="0" y="0" width="914" height="775" fill="#fff"/>
<text x="40" y="34" font-size="11" font-weight="700" fill="#7d7d7d">GROUPS</text>
<text x="40" y="62" font-size="12.5" font-weight="700">Wealthy citizen</text>
<text x="42" y="77" font-size="10.5" fill="#7d7d7d">Free · Native-born · Two citizen parents · Male · Adult · Wealthy</text>
<text x="40" y="102" font-size="12.5" font-weight="700">Poor citizen</text>
<text x="42" y="117" font-size="10.5" fill="#7d7d7d">Free · Native-born · Two citizen parents · Male · Adult</text>
<text x="40" y="142" font-size="12.5" font-weight="700">Citizen youth</text>
<text x="42" y="157" font-size="10.5" fill="#7d7d7d">Free · Native-born · Two citizen parents · Male</text>
<text x="40" y="182" font-size="12.5" font-weight="700">Citizen woman</text>
<text x="42" y="197" font-size="10.5" fill="#7d7d7d">Free · Native-born · Two citizen parents · Adult</text>
<text x="40" y="222" font-size="12.5" font-weight="700">One citizen parent</text>
<text x="42" y="237" font-size="10.5" fill="#7d7d7d">Free · Native-born · Male · Adult</text>
<text x="40" y="262" font-size="12.5" font-weight="700">Wealthy metic</text>
<text x="42" y="277" font-size="10.5" fill="#7d7d7d">Free · Male · Adult · Wealthy</text>
<text x="40" y="302" font-size="12.5" font-weight="700">Freedman</text>
<text x="42" y="317" font-size="10.5" fill="#7d7d7d">Free · Male · Adult</text>
<text x="40" y="342" font-size="12.5" font-weight="700">Slave</text>
<text x="42" y="357" font-size="10.5" fill="#7d7d7d">— (none)</text>
<path d="M 752.5 89.7 C 741.7 101.1 729.0 114.3 717.4 126.6" fill="none" stroke="#9a9a9a" stroke-width="1.2"/>
<path d="M 783.3 90.1 C 792.0 163.7 815.0 357.7 825.3 444.9" fill="none" stroke="#9a9a9a" stroke-width="1.2"/>
<path d="M 693.7 197.3 C 698.8 207.8 704.6 220.0 710.2 231.5" fill="none" stroke="#9a9a9a" stroke-width="1.2"/>
<path d="M 654.8 197.7 C 622.8 234.9 567.2 299.6 531.3 341.3" fill="none" stroke="#9a9a9a" stroke-width="1.2"/>
<path d="M 673.1 197.7 C 664.6 234.0 650.2 296.3 640.4 338.1" fill="none" stroke="#9a9a9a" stroke-width="1.2"/>
<path d="M 730.5 305.1 C 730.5 361.6 730.5 486.8 730.5 553.0" fill="none" stroke="#9a9a9a" stroke-width="1.2"/>
<path d="M 509.2 412.6 C 532.9 469.3 585.4 595.4 612.9 661.4" fill="none" stroke="#9a9a9a" stroke-width="1.2"/>
<path d="M 630.5 412.6 C 630.5 469.1 630.5 594.3 630.5 660.5" fill="none" stroke="#9a9a9a" stroke-width="1.2"/>
<path d="M 803.2 519.8 C 792.3 531.2 779.7 544.4 768.0 556.6" fill="none" stroke="#9a9a9a" stroke-width="1.2"/>
<path d="M 703.2 627.3 C 692.3 638.7 679.7 651.9 668.0 664.2" fill="none" stroke="#9a9a9a" stroke-width="1.2"/>
<circle cx="779.8" cy="59.8" r="9.0" fill="#f0f0f0" stroke="#111111" stroke-width="1.5"/>
<rect x="757.3" y="70.8" width="45.1" height="12" fill="#fff"/>
<text x="779.8" y="80.8" font-size="11.5" text-anchor="middle">Wealthy</text>
<rect x="757.3" y="83.3" width="45.1" height="12" fill="#fff"/>
<text x="779.8" y="93.3" font-size="11.5" text-anchor="middle">citizen</text>
<circle cx="679.8" cy="167.3" r="15.4" fill="#f0f0f0" stroke="#111111" stroke-width="1.5"/>
<rect x="666.9" y="184.7" width="25.8" height="12" fill="#fff"/>
<text x="679.8" y="194.7" font-size="11.5" text-anchor="middle">Poor</text>
<rect x="657.3" y="197.2" width="45.1" height="12" fill="#fff"/>
<text x="679.8" y="207.2" font-size="11.5" text-anchor="middle">citizen</text>
<circle cx="497.1" cy="382.3" r="10.9" fill="#f0f0f0" stroke="#111111" stroke-width="1.5"/>
<rect x="474.6" y="395.2" width="45.1" height="12" fill="#fff"/>
<text x="497.1" y="405.2" font-size="11.5" text-anchor="middle">Citizen</text>
<rect x="481.0" y="407.7" width="32.2" height="12" fill="#fff"/>
<text x="497.1" y="417.7" font-size="11.5" text-anchor="middle">youth</text>
<circle cx="630.5" cy="382.3" r="15.8" fill="#f0f0f0" stroke="#111111" stroke-width="1.5"/>
<rect x="607.9" y="400.1" width="45.1" height="12" fill="#fff"/>
<text x="630.5" y="410.1" font-size="11.5" text-anchor="middle">Citizen</text>
<rect x="614.4" y="412.6" width="32.2" height="12" fill="#fff"/>
<text x="630.5" y="422.6" font-size="11.5" text-anchor="middle">woman</text>
<circle cx="730.5" cy="274.8" r="7.8" fill="#f0f0f0" stroke="#111111" stroke-width="1.5"/>
<rect x="695.1" y="284.6" width="70.8" height="12" fill="#fff"/>
<text x="730.5" y="294.6" font-size="11.5" text-anchor="middle">One citizen</text>
<rect x="711.2" y="297.1" width="38.6" height="12" fill="#fff"/>
<text x="730.5" y="307.1" font-size="11.5" text-anchor="middle">parent</text>
<circle cx="830.5" cy="489.8" r="12.9" fill="#f0f0f0" stroke="#111111" stroke-width="1.5"/>
<rect x="807.9" y="504.7" width="45.1" height="12" fill="#fff"/>
<text x="830.5" y="514.7" font-size="11.5" text-anchor="middle">Wealthy</text>
<rect x="814.4" y="517.2" width="32.2" height="12" fill="#fff"/>
<text x="830.5" y="527.2" font-size="11.5" text-anchor="middle">metic</text>
<circle cx="730.5" cy="597.4" r="8.4" fill="#f0f0f0" stroke="#111111" stroke-width="1.5"/>
<rect x="704.7" y="607.7" width="51.5" height="12" fill="#fff"/>
<text x="730.5" y="617.7" font-size="11.5" text-anchor="middle">Freedman</text>
<circle cx="630.5" cy="704.9" r="19.7" fill="#f0f0f0" stroke="#111111" stroke-width="1.5"/>
<rect x="614.4" y="726.6" width="32.2" height="12" fill="#fff"/>
<text x="630.5" y="736.6" font-size="11.5" text-anchor="middle">Slave</text>
</svg>
